<mxfile host="app.diagrams.net" agent="Mozilla/5.0 (Macintosh; Intel Mac OS X 10_15_7) AppleWebKit/605.1.15 (KHTML, like Gecko) Version/18.6 Safari/605.1.15" version="28.1.2">
  <diagram name="第 1 页" id="AUZ4n1ju3eSVBkEIeH4q">
    <mxGraphModel dx="2025" dy="2166" grid="1" gridSize="10" guides="1" tooltips="1" connect="1" arrows="1" fold="1" page="1" pageScale="1" pageWidth="827" pageHeight="1169" math="0" shadow="0">
      <root>
        <mxCell id="0" />
        <mxCell id="1" parent="0" />
        <mxCell id="wGFTbbwS4qEEZFpaKwaN-1" value="Datasets Collected" style="rounded=1;whiteSpace=wrap;arcSize=50;strokeWidth=2;" vertex="1" parent="1">
          <mxGeometry x="20" y="174" width="159" height="39" as="geometry" />
        </mxCell>
        <mxCell id="wGFTbbwS4qEEZFpaKwaN-2" value="Remove duplicate samples across datasets" style="whiteSpace=wrap;strokeWidth=2;" vertex="1" parent="1">
          <mxGeometry x="229" y="155" width="161" height="78" as="geometry" />
        </mxCell>
        <mxCell id="wGFTbbwS4qEEZFpaKwaN-3" value="Clean noisy text: special characters and irrelevant symbols" style="whiteSpace=wrap;strokeWidth=2;" vertex="1" parent="1">
          <mxGeometry x="449" y="143" width="131" height="102" as="geometry" />
        </mxCell>
        <mxCell id="wGFTbbwS4qEEZFpaKwaN-15" style="edgeStyle=none;curved=1;rounded=0;orthogonalLoop=1;jettySize=auto;html=1;exitX=0.5;exitY=0;exitDx=0;exitDy=0;entryX=0;entryY=0.5;entryDx=0;entryDy=0;fontSize=12;startSize=8;endSize=8;" edge="1" parent="1" source="wGFTbbwS4qEEZFpaKwaN-4" target="wGFTbbwS4qEEZFpaKwaN-5">
          <mxGeometry relative="1" as="geometry">
            <Array as="points">
              <mxPoint x="770" y="100" />
            </Array>
          </mxGeometry>
        </mxCell>
        <mxCell id="wGFTbbwS4qEEZFpaKwaN-17" style="edgeStyle=none;curved=1;rounded=0;orthogonalLoop=1;jettySize=auto;html=1;exitX=0.5;exitY=1;exitDx=0;exitDy=0;entryX=0.5;entryY=1;entryDx=0;entryDy=0;fontSize=12;startSize=8;endSize=8;" edge="1" parent="1" source="wGFTbbwS4qEEZFpaKwaN-4" target="wGFTbbwS4qEEZFpaKwaN-7">
          <mxGeometry relative="1" as="geometry">
            <Array as="points">
              <mxPoint x="1130" y="370" />
            </Array>
          </mxGeometry>
        </mxCell>
        <mxCell id="wGFTbbwS4qEEZFpaKwaN-4" value="Normalize text: lowercasing, tokenization, lemmatization" style="whiteSpace=wrap;strokeWidth=2;" vertex="1" parent="1">
          <mxGeometry x="648" y="143" width="151" height="102" as="geometry" />
        </mxCell>
        <mxCell id="wGFTbbwS4qEEZFpaKwaN-5" value="Non-English datasets?" style="rhombus;strokeWidth=2;whiteSpace=wrap;" vertex="1" parent="1">
          <mxGeometry x="827" y="-20" width="208" height="208" as="geometry" />
        </mxCell>
        <mxCell id="wGFTbbwS4qEEZFpaKwaN-16" style="edgeStyle=none;curved=1;rounded=0;orthogonalLoop=1;jettySize=auto;html=1;exitX=1;exitY=0.5;exitDx=0;exitDy=0;entryX=0.5;entryY=0;entryDx=0;entryDy=0;fontSize=12;startSize=8;endSize=8;" edge="1" parent="1" source="wGFTbbwS4qEEZFpaKwaN-6" target="wGFTbbwS4qEEZFpaKwaN-7">
          <mxGeometry relative="1" as="geometry">
            <Array as="points">
              <mxPoint x="1400" y="84" />
            </Array>
          </mxGeometry>
        </mxCell>
        <mxCell id="wGFTbbwS4qEEZFpaKwaN-6" value="Chinese word segmentation" style="whiteSpace=wrap;strokeWidth=2;" vertex="1" parent="1">
          <mxGeometry x="1113" y="57" width="185" height="54" as="geometry" />
        </mxCell>
        <mxCell id="wGFTbbwS4qEEZFpaKwaN-7" value="Unified Corpus" style="rounded=1;whiteSpace=wrap;arcSize=50;strokeWidth=2;" vertex="1" parent="1">
          <mxGeometry x="1320" y="174" width="130" height="39" as="geometry" />
        </mxCell>
        <mxCell id="wGFTbbwS4qEEZFpaKwaN-8" value="" style="curved=1;startArrow=none;endArrow=block;exitX=1;exitY=0.5;entryX=0;entryY=0.49;rounded=0;fontSize=12;startSize=8;endSize=8;" edge="1" parent="1" source="wGFTbbwS4qEEZFpaKwaN-1" target="wGFTbbwS4qEEZFpaKwaN-2">
          <mxGeometry relative="1" as="geometry">
            <Array as="points" />
          </mxGeometry>
        </mxCell>
        <mxCell id="wGFTbbwS4qEEZFpaKwaN-9" value="" style="curved=1;startArrow=none;endArrow=block;exitX=1;exitY=0.49;entryX=0;entryY=0.5;rounded=0;fontSize=12;startSize=8;endSize=8;" edge="1" parent="1" source="wGFTbbwS4qEEZFpaKwaN-2" target="wGFTbbwS4qEEZFpaKwaN-3">
          <mxGeometry relative="1" as="geometry">
            <Array as="points" />
          </mxGeometry>
        </mxCell>
        <mxCell id="wGFTbbwS4qEEZFpaKwaN-10" value="" style="curved=1;startArrow=none;endArrow=block;exitX=1;exitY=0.5;entryX=0;entryY=0.5;rounded=0;fontSize=12;startSize=8;endSize=8;" edge="1" parent="1" source="wGFTbbwS4qEEZFpaKwaN-3" target="wGFTbbwS4qEEZFpaKwaN-4">
          <mxGeometry relative="1" as="geometry">
            <Array as="points" />
          </mxGeometry>
        </mxCell>
        <mxCell id="wGFTbbwS4qEEZFpaKwaN-12" value="Yes" style="curved=1;startArrow=none;endArrow=block;exitX=1;exitY=0.5;entryX=0;entryY=0.5;rounded=0;fontSize=12;startSize=8;endSize=8;" edge="1" parent="1" source="wGFTbbwS4qEEZFpaKwaN-5" target="wGFTbbwS4qEEZFpaKwaN-6">
          <mxGeometry relative="1" as="geometry">
            <Array as="points" />
          </mxGeometry>
        </mxCell>
      </root>
    </mxGraphModel>
  </diagram>
</mxfile>
